<?xml version="1.0" encoding="iso-8859-1"?>
<!-- Generator: Adobe Illustrator 19.0.0, SVG Export Plug-In . SVG Version: 6.00 Build 0)  -->
<svg version="1.1" id="Capa_1" xmlns="http://www.w3.org/2000/svg" xmlns:xlink="http://www.w3.org/1999/xlink" x="0px" y="0px"
	 viewBox="0 0 480 480" style="enable-background:new 0 0 480 480;" xml:space="preserve">
<g>
	<g>
		<path d="M404.616,80c-2.122-1.499-4.839-1.875-7.288-1.008c-1.705,0.64-3.507,0.981-5.328,1.008c-8.837,0-16-7.163-16-16
			c0.027-1.821,0.368-3.623,1.008-5.328c1.476-4.165-0.704-8.737-4.869-10.213c-0.857-0.304-1.759-0.459-2.667-0.459H110.528
			c-4.418,0.003-7.998,3.586-7.995,8.005c0,0.909,0.156,1.811,0.459,2.667c0.64,1.705,0.981,3.507,1.008,5.328
			c0,8.837-7.163,16-16,16c-1.821-0.027-3.623-0.368-5.328-1.008c-4.165-1.476-8.737,0.704-10.213,4.869
			c-0.304,0.857-0.459,1.759-0.459,2.667v130.944c0.003,4.418,3.586,7.998,8.005,7.995c0.909-0.001,1.811-0.156,2.667-0.459
			c1.705-0.64,3.507-0.981,5.328-1.008c8.837,0,16,7.163,16,16c-0.027,1.821-0.368,3.623-1.008,5.328
			c-1.476,4.165,0.704,8.737,4.869,10.213c0.857,0.304,1.759,0.459,2.667,0.459h258.944c4.418-0.003,7.998-3.586,7.995-8.005
			c0-0.909-0.156-1.811-0.459-2.667c-0.64-1.705-0.981-3.507-1.008-5.328c0-8.837,7.163-16,16-16
			c1.821,0.027,3.623,0.368,5.328,1.008c4.165,1.476,8.737-0.704,10.213-4.869c0.304-0.857,0.459-1.759,0.459-2.667V86.528
			C407.998,83.932,406.736,81.498,404.616,80z M392,208c-17.673,0-32,14.327-32,32H120c0-17.673-14.327-32-32-32V96
			c17.673,0,32-14.327,32-32h240c0,17.673,14.327,32,32,32V208z"/>
	</g>
</g>
<g>
	<g>
		<path d="M432,16H48c-4.418,0-8,3.582-8,8v256c0,4.418,3.582,8,8,8h384c4.418,0,8-3.582,8-8V24C440,19.582,436.418,16,432,16z
			 M424,272H56V32h368V272z"/>
	</g>
</g>
<g>
	<g>
		<path d="M279.24,176.04c-3.789-18.657-20.202-32.059-39.24-32.04c-13.255,0-24-10.745-24-24s10.745-24,24-24s24,10.745,24,24h16
			c-0.024-19.001-13.389-35.373-32-39.2V72h-16v8.8c-21.65,4.396-35.636,25.51-31.24,47.16c3.789,18.657,20.202,32.059,39.24,32.04
			c13.255,0,24,10.745,24,24s-10.745,24-24,24s-24-10.745-24-24h-16c0.024,19.001,13.389,35.373,32,39.2v8.8h16v-8.8
			C269.65,218.804,283.636,197.69,279.24,176.04z"/>
	</g>
</g>
<g>
	<g>
		<path d="M99.016,397.304c16.291-14.921,17.403-40.223,2.482-56.514s-40.223-17.403-56.514-2.482s-17.403,40.223-2.482,56.514
			c0.791,0.863,1.619,1.691,2.482,2.482C17.824,408.322,0.04,434.69,0,464h16c0-30.928,25.072-56,56-56c30.928,0,56,25.072,56,56h16
			C143.96,434.69,126.176,408.322,99.016,397.304z M72,392c-13.255,0-24-10.745-24-24s10.745-24,24-24s24,10.745,24,24
			S85.255,392,72,392z"/>
	</g>
</g>
<g>
	<g>
		<path d="M435.016,397.304c16.291-14.921,17.403-40.223,2.482-56.514s-40.223-17.403-56.514-2.482s-17.403,40.223-2.482,56.514
			c0.791,0.863,1.619,1.691,2.482,2.482C353.824,408.322,336.04,434.69,336,464h16c0-30.928,25.072-56,56-56
			c30.928,0,56,25.072,56,56h16C479.96,434.69,462.176,408.322,435.016,397.304z M408,392c-13.255,0-24-10.745-24-24
			s10.745-24,24-24s24,10.745,24,24S421.255,392,408,392z"/>
	</g>
</g>
<g>
	<g>
		<path d="M171.312,376H184v-16h-32c-4.418,0.001-7.999,3.583-7.998,8.002c0,2.121,0.843,4.154,2.342,5.654l32,32l11.312-11.312
			L171.312,376z"/>
	</g>
</g>
<g>
	<g>
		<rect x="200" y="360" width="32" height="16"/>
	</g>
</g>
<g>
	<g>
		<rect x="248" y="360" width="32" height="16"/>
	</g>
</g>
<g>
	<g>
		<path d="M333.656,362.344l-32-32l-11.312,11.312L308.688,360H296v16h32c4.418-0.001,7.999-3.583,7.998-8.002
			C335.998,365.878,335.155,363.844,333.656,362.344z"/>
	</g>
</g>
<g>
</g>
<g>
</g>
<g>
</g>
<g>
</g>
<g>
</g>
<g>
</g>
<g>
</g>
<g>
</g>
<g>
</g>
<g>
</g>
<g>
</g>
<g>
</g>
<g>
</g>
<g>
</g>
<g>
</g>
</svg>
