<?xml version="1.0" encoding="iso-8859-1"?>
<svg version="1.1" xmlns="http://www.w3.org/2000/svg" xmlns:xlink="http://www.w3.org/1999/xlink" x="0px" y="0px"
	 viewBox="0 0 512 512" style="enable-background:new 0 0 512 512;" xml:space="preserve">
<g>
	<g>
		<g>
			<circle cx="53.333" cy="53.333" r="10.667"/>
			<circle cx="96" cy="53.333" r="10.667"/>
			<circle cx="138.667" cy="53.333" r="10.667"/>
			<path d="M470.854,64H448V41.146C448,18.458,429.542,0,406.854,0H41.146C18.458,0,0,18.458,0,41.146v365.708
				C0,429.542,18.458,448,41.146,448H64v22.854C64,493.542,82.458,512,105.146,512h365.708C493.542,512,512,493.542,512,470.854
				V105.146C512,82.458,493.542,64,470.854,64z M21.333,41.146c0-10.927,8.885-19.813,19.813-19.813h365.708
				c10.927,0,19.813,8.885,19.813,19.813v44.188H21.333V41.146z M41.146,426.667c-10.927,0-19.813-8.885-19.813-19.813V106.667
				h405.333v300.188c0,10.927-8.885,19.813-19.813,19.813H41.146z M490.667,470.854c0,10.927-8.885,19.813-19.813,19.813H105.146
				c-10.927,0-19.813-8.885-19.813-19.813V448h321.521C429.542,448,448,429.542,448,406.854V170.667h42.667V470.854z
				 M490.667,149.333H448v-64h22.854c10.927,0,19.813,8.885,19.813,19.813V149.333z"/>
		</g>
	</g>
</g></svg>
